# xmcd
# 
# Track frame offsets:
#     150
#     11732
#     24193
#     34646
#     49524
#     63080
#     73421
#     84818
#     93850
#     104140
#     114344
#     124749
#     139034
#     148666
#     163456
#     174845
#     188537
#     198529
#     209847
#     221107
#     232473
#     242054
#     253099
#     264128
#     274087
#     284680
# 
# Disc length: 3940
# 
# Revision: 1
# Processed by: cddbd v1.5.2PL0 Copyright (c) Steve Scherf et al.
# Submitted via: fre:ac v1.0.17
# 
DISCID=880f621a
DTITLE=Marty Robbins - The Essential Marty Robbins [CD1 Of 2]
DYEAR=2009
DGENRE=Country
TTITLE0=Lovesick Blues
TTITLE1=I'm So Lonesome I Could Cry
TTITLE2=It's Too Late Now (To Worry Any More)
TTITLE3=Rose Of Ol' Pawnee
TTITLE4=I Never Let You Cross My Mind
TTITLE5=I Hang My Head And Cry
TTITLE6=You Only Want Me When You're Lonely
TTITLE7=Moanin' The Blues
TTITLE8=I'll Step Aside
TTITLE9=All The World Is Lonely Now
TTITLE10=Bouquet Of Roses
TTITLE11=Have I Told You Lately That I Love You?
TTITLE12=Long Tall Sally
TTITLE13=Tennessee Toddy
TTITLE14=Maybelline
TTITLE15=Respectfully, Miss Brooks
TTITLE16=Mean Mama Blues
TTITLE17=Long Gone Lonesome Blues
TTITLE18=A White Sport Coat (And A Pink Carnation)
TTITLE19=The Story Of My Life
TTITLE20=Just Married
TTITLE21=Singing The Blues
TTITLE22=I Can't Quit (I've Gone Too Far)
TTITLE23=Knee Deep In The Blues
TTITLE24=Please Don't Blame Me
TTITLE25=She Was Only Seventeen (He Was One Year More)
EXTD=
EXTT0=
EXTT1=
EXTT2=
EXTT3=
EXTT4=
EXTT5=
EXTT6=
EXTT7=
EXTT8=
EXTT9=
EXTT10=
EXTT11=
EXTT12=
EXTT13=
EXTT14=
EXTT15=
EXTT16=
EXTT17=
EXTT18=
EXTT19=
EXTT20=
EXTT21=
EXTT22=
EXTT23=
EXTT24=
EXTT25=
PLAYORDER=
